<mxfile host="65bd71144e">
    <diagram id="XGFnYQUIuLLbVxDgxXFn" name="Page-1">
        <mxGraphModel dx="3476" dy="1144" grid="1" gridSize="10" guides="1" tooltips="1" connect="1" arrows="1" fold="1" page="1" pageScale="1" pageWidth="850" pageHeight="1100" math="0" shadow="0">
            <root>
                <mxCell id="0"/>
                <mxCell id="1" parent="0"/>
                <mxCell id="13" value="" style="edgeStyle=none;html=1;fontSize=16;verticalAlign=middle;endArrow=none;endFill=0;" edge="1" parent="1" source="4" target="12">
                    <mxGeometry relative="1" as="geometry"/>
                </mxCell>
                <mxCell id="14" style="edgeStyle=none;html=1;fontSize=16;verticalAlign=middle;endArrow=none;endFill=0;" edge="1" parent="1" source="4">
                    <mxGeometry relative="1" as="geometry">
                        <mxPoint x="341.060606060606" y="310" as="targetPoint"/>
                    </mxGeometry>
                </mxCell>
                <mxCell id="15" style="edgeStyle=none;html=1;fontSize=16;verticalAlign=middle;endArrow=none;endFill=0;" edge="1" parent="1" source="4" target="22">
                    <mxGeometry relative="1" as="geometry">
                        <mxPoint x="355" y="560" as="targetPoint"/>
                    </mxGeometry>
                </mxCell>
                <mxCell id="34" style="edgeStyle=none;html=1;endArrow=none;endFill=0;" edge="1" parent="1" source="4" target="33">
                    <mxGeometry relative="1" as="geometry"/>
                </mxCell>
                <mxCell id="36" value="" style="edgeStyle=none;html=1;" edge="1" parent="1" source="4" target="35">
                    <mxGeometry relative="1" as="geometry"/>
                </mxCell>
                <mxCell id="4" value="Paticipants" style="shape=rhombus;html=1;dashed=0;whiteSpace=wrap;perimeter=rhombusPerimeter;fontSize=16;verticalAlign=middle;" vertex="1" parent="1">
                    <mxGeometry x="300" y="400" width="170" height="80" as="geometry"/>
                </mxCell>
                <mxCell id="12" value="&lt;u&gt;&lt;b&gt;UserID(FK)&lt;/b&gt;&lt;/u&gt;" style="ellipse;whiteSpace=wrap;html=1;dashed=0;fontSize=16;verticalAlign=middle;" vertex="1" parent="1">
                    <mxGeometry x="530" y="310" width="110" height="80" as="geometry"/>
                </mxCell>
                <mxCell id="18" value="" style="edgeStyle=none;html=1;fontSize=16;verticalAlign=middle;endArrow=none;endFill=0;" edge="1" parent="1" source="16" target="17">
                    <mxGeometry relative="1" as="geometry"/>
                </mxCell>
                <mxCell id="21" value="" style="edgeStyle=none;html=1;fontSize=16;verticalAlign=middle;endArrow=none;endFill=0;" edge="1" parent="1" source="16" target="20">
                    <mxGeometry relative="1" as="geometry"/>
                </mxCell>
                <mxCell id="16" value="Users" style="rounded=0;whiteSpace=wrap;html=1;fontSize=16;verticalAlign=middle;" vertex="1" parent="1">
                    <mxGeometry x="285" y="250" width="120" height="60" as="geometry"/>
                </mxCell>
                <mxCell id="17" value="&lt;b&gt;...&lt;/b&gt;" style="ellipse;whiteSpace=wrap;html=1;rounded=0;fontSize=16;verticalAlign=middle;" vertex="1" parent="1">
                    <mxGeometry x="500" y="170" width="115" height="80" as="geometry"/>
                </mxCell>
                <mxCell id="20" value="&lt;b&gt;&lt;u&gt;&lt;font&gt;ID(PK)&lt;/font&gt;&lt;/u&gt;&lt;/b&gt;" style="ellipse;whiteSpace=wrap;html=1;rounded=0;fontSize=16;verticalAlign=middle;" vertex="1" parent="1">
                    <mxGeometry x="280" y="100" width="125" height="80" as="geometry"/>
                </mxCell>
                <mxCell id="26" value="" style="edgeStyle=none;html=1;fontSize=16;endArrow=none;endFill=0;" edge="1" parent="1" source="22" target="25">
                    <mxGeometry relative="1" as="geometry"/>
                </mxCell>
                <mxCell id="28" value="" style="edgeStyle=none;html=1;fontSize=16;endArrow=none;endFill=0;" edge="1" parent="1" source="22" target="27">
                    <mxGeometry relative="1" as="geometry"/>
                </mxCell>
                <mxCell id="32" value="" style="edgeStyle=none;html=1;endArrow=none;endFill=0;" edge="1" parent="1" source="22" target="31">
                    <mxGeometry relative="1" as="geometry"/>
                </mxCell>
                <mxCell id="22" value="AI model" style="rounded=0;whiteSpace=wrap;html=1;verticalAlign=middle;fontSize=16;" vertex="1" parent="1">
                    <mxGeometry x="320" y="570" width="120" height="60" as="geometry"/>
                </mxCell>
                <mxCell id="24" style="edgeStyle=none;html=1;verticalAlign=middle;endArrow=none;endFill=0;fontSize=16;" edge="1" parent="1" source="23" target="4">
                    <mxGeometry relative="1" as="geometry"/>
                </mxCell>
                <mxCell id="39" value="" style="edgeStyle=none;html=1;" edge="1" parent="1" source="23" target="38">
                    <mxGeometry relative="1" as="geometry"/>
                </mxCell>
                <mxCell id="43" value="" style="edgeStyle=none;html=1;" edge="1" parent="1" source="23" target="42">
                    <mxGeometry relative="1" as="geometry"/>
                </mxCell>
                <mxCell id="45" value="" style="edgeStyle=none;html=1;" edge="1" parent="1" source="23" target="44">
                    <mxGeometry relative="1" as="geometry"/>
                </mxCell>
                <mxCell id="47" value="" style="edgeStyle=none;html=1;" edge="1" parent="1" source="23" target="46">
                    <mxGeometry relative="1" as="geometry"/>
                </mxCell>
                <mxCell id="23" value="Conversations" style="rounded=0;whiteSpace=wrap;html=1;fontSize=16;verticalAlign=middle;" vertex="1" parent="1">
                    <mxGeometry x="70" y="390" width="150" height="60" as="geometry"/>
                </mxCell>
                <mxCell id="25" value="&lt;b&gt;&lt;u&gt;ID(PK)&lt;/u&gt;&lt;/b&gt;" style="ellipse;whiteSpace=wrap;html=1;rounded=0;fontSize=16;" vertex="1" parent="1">
                    <mxGeometry x="510" y="650" width="140" height="80" as="geometry"/>
                </mxCell>
                <mxCell id="27" value="Name" style="ellipse;whiteSpace=wrap;html=1;rounded=0;fontSize=16;" vertex="1" parent="1">
                    <mxGeometry x="380" y="780" width="150" height="80" as="geometry"/>
                </mxCell>
                <mxCell id="31" value="API_Key" style="ellipse;whiteSpace=wrap;html=1;fontSize=16;rounded=0;" vertex="1" parent="1">
                    <mxGeometry x="240" y="700" width="120" height="80" as="geometry"/>
                </mxCell>
                <mxCell id="33" value="&lt;u&gt;&lt;b&gt;ModeID(FK)&lt;/b&gt;&lt;/u&gt;" style="ellipse;whiteSpace=wrap;html=1;dashed=0;fontSize=16;verticalAlign=middle;" vertex="1" parent="1">
                    <mxGeometry x="615" y="410" width="110" height="80" as="geometry"/>
                </mxCell>
                <mxCell id="35" value="Join At" style="ellipse;whiteSpace=wrap;html=1;fontSize=16;dashed=0;" vertex="1" parent="1">
                    <mxGeometry x="575" y="510" width="150" height="80" as="geometry"/>
                </mxCell>
                <mxCell id="38" value="ID(PK)" style="ellipse;whiteSpace=wrap;html=1;fontSize=16;rounded=0;fontStyle=5" vertex="1" parent="1">
                    <mxGeometry x="80" y="240" width="120" height="80" as="geometry"/>
                </mxCell>
                <mxCell id="42" value="Name" style="ellipse;whiteSpace=wrap;html=1;fontSize=16;rounded=0;" vertex="1" parent="1">
                    <mxGeometry x="-60" y="280" width="140" height="80" as="geometry"/>
                </mxCell>
                <mxCell id="44" value="Create At" style="ellipse;whiteSpace=wrap;html=1;fontSize=16;rounded=0;" vertex="1" parent="1">
                    <mxGeometry x="-140" y="370" width="115" height="80" as="geometry"/>
                </mxCell>
                <mxCell id="51" value="" style="edgeStyle=none;html=1;" edge="1" parent="1" source="46" target="50">
                    <mxGeometry relative="1" as="geometry"/>
                </mxCell>
                <mxCell id="53" value="" style="edgeStyle=none;html=1;" edge="1" parent="1" source="46" target="52">
                    <mxGeometry relative="1" as="geometry"/>
                </mxCell>
                <mxCell id="55" value="" style="edgeStyle=none;html=1;" edge="1" parent="1" source="46" target="54">
                    <mxGeometry relative="1" as="geometry"/>
                </mxCell>
                <mxCell id="57" value="" style="edgeStyle=none;html=1;" edge="1" parent="1" source="46" target="56">
                    <mxGeometry relative="1" as="geometry"/>
                </mxCell>
                <mxCell id="59" value="" style="edgeStyle=none;html=1;" edge="1" parent="1" source="46" target="58">
                    <mxGeometry relative="1" as="geometry"/>
                </mxCell>
                <mxCell id="61" value="" style="edgeStyle=none;html=1;" edge="1" parent="1" source="46" target="60">
                    <mxGeometry relative="1" as="geometry"/>
                </mxCell>
                <mxCell id="46" value="&lt;code&gt;Messages&lt;/code&gt;" style="whiteSpace=wrap;html=1;fontSize=16;rounded=0;" vertex="1" parent="1">
                    <mxGeometry x="-30" y="610" width="170" height="60" as="geometry"/>
                </mxCell>
                <mxCell id="50" value="ID(PK)" style="ellipse;whiteSpace=wrap;html=1;fontSize=16;rounded=0;fontStyle=5" vertex="1" parent="1">
                    <mxGeometry x="-280" y="550" width="125" height="80" as="geometry"/>
                </mxCell>
                <mxCell id="52" value="&lt;code&gt;ConversationID(FK)&lt;/code&gt;" style="ellipse;whiteSpace=wrap;html=1;fontSize=16;rounded=0;fontStyle=5" vertex="1" parent="1">
                    <mxGeometry x="-170" y="720" width="170" height="80" as="geometry"/>
                </mxCell>
                <mxCell id="54" value="&lt;code&gt;SenderID(FK)&lt;/code&gt;" style="ellipse;whiteSpace=wrap;html=1;fontSize=16;rounded=0;fontStyle=5" vertex="1" parent="1">
                    <mxGeometry x="-155" y="510" width="140" height="80" as="geometry"/>
                </mxCell>
                <mxCell id="56" value="&lt;code&gt;Timestamp&lt;/code&gt;" style="ellipse;whiteSpace=wrap;html=1;fontSize=16;rounded=0;" vertex="1" parent="1">
                    <mxGeometry x="145" y="500" width="155" height="80" as="geometry"/>
                </mxCell>
                <mxCell id="58" value="&lt;code&gt;MessageType&lt;/code&gt;" style="ellipse;whiteSpace=wrap;html=1;fontSize=16;rounded=0;" vertex="1" parent="1">
                    <mxGeometry x="90" y="750" width="160" height="80" as="geometry"/>
                </mxCell>
                <mxCell id="63" value="" style="edgeStyle=none;html=1;" edge="1" parent="1" source="60" target="62">
                    <mxGeometry relative="1" as="geometry"/>
                </mxCell>
                <mxCell id="65" value="" style="edgeStyle=none;html=1;" edge="1" parent="1" source="60" target="64">
                    <mxGeometry relative="1" as="geometry"/>
                </mxCell>
                <mxCell id="67" value="" style="edgeStyle=none;html=1;" edge="1" parent="1" source="60" target="66">
                    <mxGeometry relative="1" as="geometry"/>
                </mxCell>
                <mxCell id="69" value="" style="edgeStyle=none;html=1;" edge="1" parent="1" source="60" target="68">
                    <mxGeometry relative="1" as="geometry"/>
                </mxCell>
                <mxCell id="71" value="" style="edgeStyle=none;html=1;" edge="1" parent="1" source="60" target="70">
                    <mxGeometry relative="1" as="geometry"/>
                </mxCell>
                <mxCell id="73" value="" style="edgeStyle=none;html=1;" edge="1" parent="1" source="60" target="72">
                    <mxGeometry relative="1" as="geometry"/>
                </mxCell>
                <mxCell id="76" style="edgeStyle=none;html=1;" edge="1" parent="1" source="60" target="74">
                    <mxGeometry relative="1" as="geometry"/>
                </mxCell>
                <mxCell id="60" value="&lt;code&gt;Attachments&lt;/code&gt;" style="whiteSpace=wrap;html=1;fontSize=16;rounded=0;" vertex="1" parent="1">
                    <mxGeometry x="-450" y="730" width="120" height="60" as="geometry"/>
                </mxCell>
                <mxCell id="62" value="ID(PK)" style="ellipse;whiteSpace=wrap;html=1;fontSize=16;rounded=0;fontStyle=5" vertex="1" parent="1">
                    <mxGeometry x="-480" y="580" width="130" height="80" as="geometry"/>
                </mxCell>
                <mxCell id="64" value="&lt;code&gt;&lt;b&gt;&lt;u&gt;MessageID(FK)&lt;/u&gt;&lt;/b&gt;&lt;/code&gt;" style="ellipse;whiteSpace=wrap;html=1;fontSize=16;rounded=0;" vertex="1" parent="1">
                    <mxGeometry x="-260" y="800" width="130" height="80" as="geometry"/>
                </mxCell>
                <mxCell id="66" value="&lt;code&gt;FileType&lt;/code&gt;" style="ellipse;whiteSpace=wrap;html=1;fontSize=16;rounded=0;" vertex="1" parent="1">
                    <mxGeometry x="-380" y="880" width="140" height="80" as="geometry"/>
                </mxCell>
                <mxCell id="68" value="&lt;code&gt;OriginalFileName&lt;/code&gt;" style="ellipse;whiteSpace=wrap;html=1;fontSize=16;rounded=0;" vertex="1" parent="1">
                    <mxGeometry x="-690" y="630" width="150" height="80" as="geometry"/>
                </mxCell>
                <mxCell id="70" value="&lt;code&gt;StorageURL&lt;/code&gt;" style="ellipse;whiteSpace=wrap;html=1;fontSize=16;rounded=0;" vertex="1" parent="1">
                    <mxGeometry x="-720" y="730" width="145" height="80" as="geometry"/>
                </mxCell>
                <mxCell id="72" value="&lt;code&gt;FileSize&lt;/code&gt;" style="ellipse;whiteSpace=wrap;html=1;fontSize=16;rounded=0;" vertex="1" parent="1">
                    <mxGeometry x="-670" y="830" width="140" height="80" as="geometry"/>
                </mxCell>
                <mxCell id="74" value="Create At" style="ellipse;whiteSpace=wrap;html=1;fontSize=16;rounded=0;" vertex="1" parent="1">
                    <mxGeometry x="-510" y="870" width="115" height="80" as="geometry"/>
                </mxCell>
            </root>
        </mxGraphModel>
    </diagram>
</mxfile>